<svg width="489" height="181" viewBox="0 0 489 181" fill="none" xmlns="http://www.w3.org/2000/svg">
<rect x="1" y="68" width="145" height="60" rx="9" stroke="#000000" stroke-width="2"/>
<path d="M145 98H190.924C193.686 98 195.924 95.7614 195.924 93V12C195.924 9.23858 198.163 7 200.924 7H470C472.761 7 475 9.23858 475 12V181" stroke="#000000" stroke-width="2"/>
<rect x="475" y="138" width="6" height="2" rx="1" fill="#000000"/>
<rect x="475" y="145" width="14" height="2" rx="1" fill="#000000"/>
<rect x="150" y="112" width="14" height="2" rx="1" transform="rotate(-90 150 112)" fill="#000000"/>
<rect x="155" y="106" width="8" height="2" rx="1" transform="rotate(-90 155 106)" fill="#000000"/>
<path d="M177.5 92.5H186.5C187.605 92.5 188.5 91.6046 188.5 90.5V72.5" stroke="#000000" stroke-width="2" stroke-linecap="round"/>
<path d="M466.5 1.5H476.5C479.261 1.5 481.5 3.73858 481.5 6.5V36" stroke="#000000" stroke-width="2" stroke-linecap="round"/>
</svg>
